<?xml version="1.0" encoding="UTF-8" standalone="no"?><!DOCTYPE svg PUBLIC "-//W3C//DTD SVG 1.1//EN" "http://www.w3.org/Graphics/SVG/1.1/DTD/svg11.dtd"><svg width="100%" height="100%" viewBox="0 0 290 64" version="1.1" xmlns="http://www.w3.org/2000/svg" xmlns:xlink="http://www.w3.org/1999/xlink" xml:space="preserve" style="fill-rule:evenodd;clip-rule:evenodd;stroke-linecap:square;stroke-miterlimit:1;"><rect id="Artboard10" x="-1419.6" y="-723.386" width="3514.28" height="1513.49" style="fill:none;"/><clipPath id="_clip1"><rect x="-1419.6" y="-723.386" width="3514.28" height="1513.49"/></clipPath><g clip-path="url(#_clip1)"><rect x="-1419.6" y="-723.386" width="3514.28" height="1513.49" style="stroke:#fff;stroke-width:2px;"/><g><path d="M26.211,22.249c0.223,-3.727 1.155,-6.821 2.795,-9.281c1.64,-2.46 3.728,-4.435 6.262,-5.926c2.535,-1.491 5.386,-2.554 8.555,-3.187c3.168,-0.634 6.355,-0.951 9.561,-0.951c2.907,0 5.852,0.205 8.833,0.615c2.982,0.41 5.703,1.212 8.163,2.404c2.461,1.193 4.473,2.852 6.039,4.976c1.565,2.125 2.348,4.939 2.348,8.443l0,30.08c0,2.609 0.149,5.107 0.447,7.492c0.299,2.386 0.82,4.175 1.566,5.368l-16.102,0c-0.299,-0.895 -0.541,-1.808 -0.727,-2.74c-0.187,-0.932 -0.317,-1.882 -0.392,-2.851c-2.534,2.609 -5.516,4.435 -8.945,5.479c-3.43,1.043 -6.933,1.565 -10.512,1.565c-2.758,0 -5.33,-0.335 -7.715,-1.006c-2.386,-0.671 -4.473,-1.715 -6.262,-3.131c-1.79,-1.417 -3.187,-3.206 -4.194,-5.368c-1.006,-2.161 -1.509,-4.733 -1.509,-7.715c0,-3.28 0.577,-5.983 1.733,-8.107c1.155,-2.125 2.646,-3.821 4.473,-5.088c1.826,-1.268 3.914,-2.218 6.262,-2.852c2.348,-0.633 4.715,-1.137 7.1,-1.509c2.386,-0.373 4.734,-0.671 7.045,-0.895c2.311,-0.224 4.361,-0.559 6.15,-1.006c1.79,-0.448 3.206,-1.1 4.25,-1.957c1.043,-0.857 1.528,-2.106 1.453,-3.746c0,-1.715 -0.279,-3.075 -0.838,-4.082c-0.559,-1.006 -1.305,-1.789 -2.237,-2.348c-0.932,-0.559 -2.013,-0.932 -3.243,-1.118c-1.23,-0.187 -2.553,-0.28 -3.969,-0.28c-3.131,0 -5.591,0.671 -7.38,2.013c-1.79,1.342 -2.833,3.578 -3.132,6.709l-15.878,0Zm36.677,11.742c-0.671,0.596 -1.509,1.062 -2.516,1.397c-1.006,0.336 -2.087,0.615 -3.242,0.839c-1.156,0.224 -2.367,0.41 -3.635,0.559c-1.267,0.149 -2.534,0.336 -3.802,0.559c-1.192,0.224 -2.367,0.522 -3.522,0.895c-1.155,0.373 -2.162,0.876 -3.019,1.509c-0.857,0.634 -1.547,1.436 -2.069,2.405c-0.522,0.969 -0.783,2.199 -0.783,3.69c0,1.416 0.261,2.609 0.783,3.578c0.522,0.969 1.23,1.733 2.125,2.292c0.894,0.56 1.938,0.951 3.131,1.175c1.192,0.223 2.423,0.335 3.69,0.335c3.131,0 5.554,-0.522 7.268,-1.565c1.715,-1.044 2.982,-2.293 3.802,-3.747c0.82,-1.453 1.323,-2.926 1.51,-4.416c0.186,-1.491 0.279,-2.684 0.279,-3.579l0,-5.926Z" style="fill:#fff;fill-rule:nonzero;stroke:#fff;stroke-width:0.24px;stroke-linecap:butt;stroke-linejoin:round;stroke-miterlimit:1.41421;"/><path d="M94.36,4.47l-15.879,0l0,45.364c0,2.948 0.485,5.33 1.454,7.144c0.969,1.815 2.292,3.214 3.969,4.197c1.678,0.983 3.616,1.644 5.815,1.984c2.199,0.341 4.529,0.511 6.989,0.511c1.566,0 3.168,-0.038 4.808,-0.114c1.64,-0.075 3.131,-0.227 4.473,-0.453l0,-12.475c-0.745,0.151 -1.528,0.264 -2.348,0.34c-0.82,0.075 -1.677,0.113 -2.572,0.113c-2.684,0 -4.473,-0.453 -5.367,-1.361c-0.895,-0.907 -1.342,-2.722 -1.342,-5.443l0,-29.033l11.629,0l0,-10.774l-11.629,0Z" style="fill:#fff;fill-rule:nonzero;stroke:#fff;stroke-width:0.24px;stroke-linecap:butt;stroke-linejoin:round;stroke-miterlimit:1.41421;"/><path d="M16.307,4.47l-15.878,0l0,45.364c0,2.948 0.484,5.33 1.453,7.144c0.969,1.815 2.293,3.214 3.97,4.197c1.677,0.983 3.616,1.644 5.815,1.984c2.199,0.341 4.528,0.511 6.989,0.511c1.565,0 3.168,-0.038 4.808,-0.114c1.64,-0.075 3.131,-0.227 4.473,-0.453l0,-12.475c-0.746,0.151 -1.528,0.264 -2.348,0.34c-0.82,0.075 -1.678,0.113 -2.572,0.113c-2.684,0 -4.473,-0.453 -5.368,-1.361c-0.894,-0.907 -1.342,-2.722 -1.342,-5.443l0,-29.033l11.63,0l0,-10.774l-11.63,0Z" style="fill:#fff;fill-rule:nonzero;stroke:#fff;stroke-width:0.24px;stroke-linecap:butt;stroke-linejoin:round;stroke-miterlimit:1.41421;"/><path d="M143.338,63.649l19.569,-59.179l-15.767,0l-12.189,40.407l-0.224,0l-12.188,-40.407l-16.662,0l19.793,59.179l17.668,0Z" style="fill:#fff;fill-rule:nonzero;stroke:#fff;stroke-width:0.24px;stroke-linecap:butt;stroke-linejoin:round;stroke-miterlimit:1.41421;"/><path d="M178.673,4.47l0,32.696c0,4.778 0.746,8.342 2.237,10.694c1.491,2.351 4.137,3.527 7.939,3.527c4.324,0 7.455,-1.288 9.393,-3.863c1.939,-2.575 2.908,-6.812 2.908,-12.709l0,20.199c-1.947,2.991 -4.407,5.178 -7.381,6.563c-3.205,1.493 -6.485,2.239 -9.84,2.239c-4.249,0 -7.734,-0.56 -10.455,-1.679c-2.721,-1.12 -4.864,-2.706 -6.43,-4.759c-1.566,-2.053 -2.665,-4.554 -3.299,-7.503c-0.633,-2.948 -0.95,-6.214 -0.95,-9.797l0,-35.608l15.878,0Z" style="fill:#fff;stroke:#fff;stroke-width:0.24px;stroke-linecap:butt;stroke-linejoin:round;stroke-miterlimit:1.41421;"/><path d="M201.15,4.51l0,59.295l15.878,0l0,-34.407c0,-2.906 0.41,-5.257 1.23,-7.054c0.82,-1.797 1.808,-3.173 2.964,-4.129c1.155,-0.955 2.348,-1.605 3.578,-1.949c1.23,-0.345 2.218,-0.517 2.963,-0.517c2.535,0 4.455,0.44 5.759,1.319c1.305,0.88 2.237,2.046 2.796,3.498c0.559,1.453 0.876,3.04 0.95,4.76c0.075,1.72 0.112,3.46 0.112,5.218l0,33.261l15.879,0l0,-33.031c0,-1.835 0.13,-3.651 0.391,-5.448c0.261,-1.797 0.783,-3.402 1.566,-4.817c0.782,-1.414 1.863,-2.561 3.242,-3.441c1.38,-0.879 3.187,-1.319 5.424,-1.319c2.236,0 4.007,0.383 5.311,1.147c1.305,0.765 2.293,1.797 2.964,3.097c0.671,1.3 1.081,2.829 1.23,4.588c0.149,1.758 0.223,3.631 0.223,5.619l0,33.605l15.879,0l0,-39.683c0,-3.823 -0.522,-7.092 -1.565,-9.806c-1.044,-2.715 -2.498,-4.913 -4.362,-6.595c-1.863,-1.682 -4.1,-2.905 -6.709,-3.67c-2.609,-0.765 -5.442,-1.147 -8.498,-1.147c-4.026,0 -7.511,0.994 -10.456,2.982c-2.944,1.988 -5.274,4.282 -6.989,6.881c-1.565,-3.67 -3.857,-6.231 -6.877,-7.684c-3.019,-1.452 -6.355,-2.179 -10.008,-2.179c-3.802,0 -7.175,0.841 -10.12,2.523c-2.944,1.682 -5.46,4.053 -7.548,7.111l-0.223,0l0,-8.028l-14.984,0Z" style="fill:#fff;fill-rule:nonzero;stroke:#fff;stroke-width:0.24px;stroke-linecap:butt;stroke-linejoin:round;stroke-miterlimit:1.41421;"/></g></g></svg>